# xmcd
#
# Track frame offsets:
# 225
# 7537
# 14475
# 22015
# 30592
# 38032
# 42952
# 53300
# 60202
# 68795
# 75852
# 80592
# 90982
# 98510
# 109210
# 114652
# 124000
# 135425
# 145797
# 152930
# 158960
# 169490
# 176355
#
# Disc length: 2432 seconds
#
#
# Revision: 0
# Processed by: cddbd v1.5.2PL0 Copyright (c) Steve Scherf et al.
# Submitted via: FreeRIP 2.951 
#
DISCID=0c097d17
DTITLE=Raymond Fairchild - Mama Likes Bluegrass Music
DYEAR=1900
DGENRE=Bluegrass
TTITLE0=Slew Foot
TTITLE1=Dixie
TTITLE2=Little Maggie
TTITLE3=Lost To A Stranger
TTITLE4=Raymond's Repeating Banjo
TTITLE5=Casey Jones
TTITLE6=I Ain't Gonna Work Tomorrow
TTITLE7=Foggy Mountain Top
TTITLE8=Cripple Creek
TTITLE9=Roll In My Sweet Baby's Arms
TTITLE10=Flying Turkey
TTITLE11=Raymond's Frosty Mountain Blues
TTITLE12=Kickin' Mule
TTITLE13=Wings Of A Dove
TTITLE14=Frosty Mountain On Fire
TTITLE15=Ride My Blues Away
TTITLE16=Mama Likes Bluegrass Music
TTITLE17=You Are My Flower
TTITLE18=Worried Mountain
TTITLE19=Black Eyed Susie
TTITLE20=Pat's Train Special
TTITLE21=Rabbit In The Log
TTITLE22=May I Sleep In Your Barn Tonight, Mister
EXTD=
EXTT0=
EXTT1=
EXTT2=
EXTT3=
EXTT4=
EXTT5=
EXTT6=
EXTT7=
EXTT8=
EXTT9=
EXTT10=
EXTT11=
EXTT12=
EXTT13=
EXTT14=
EXTT15=
EXTT16=
EXTT17=
EXTT18=
EXTT19=
EXTT20=
EXTT21=
EXTT22=
PLAYORDER=
